<svg width="51" height="59" viewBox="0 0 51 59" fill="none" xmlns="http://www.w3.org/2000/svg">
<path d="M25.0716 30.1292C16.1747 30.1292 8.9364 23.6609 8.9364 15.71C8.9364 7.75943 16.1747 1.29114 25.0716 1.29114C33.9685 1.29114 41.2068 7.75943 41.2068 15.71C41.2068 23.6609 33.9685 30.1292 25.0716 30.1292ZM25.0716 4.93444C18.5626 4.93444 13.2672 9.76831 13.2672 15.71C13.2672 21.6518 18.5626 26.4859 25.0716 26.4859C31.5806 26.4859 36.876 21.6518 36.876 15.71C36.876 9.76831 31.5806 4.93444 25.0716 4.93444Z" fill="#00BFA6"/>
<path d="M25.1073 29.7853C16.1907 29.7853 8.9364 23.1045 8.9364 14.8925C8.9364 6.68076 16.1907 0 25.1073 0C34.0239 0 41.2782 6.68076 41.2782 14.8925C41.2782 23.1045 34.0239 29.7853 25.1073 29.7853ZM25.1073 3.76298C18.5839 3.76298 13.2768 8.75563 13.2768 14.8925C13.2768 21.0294 18.5839 26.0223 25.1073 26.0223C31.6306 26.0223 36.9378 21.0294 36.9378 14.8925C36.9378 8.75563 31.6306 3.76298 25.1073 3.76298Z" fill="#00BFA6"/>
<path d="M40.8132 59.0001H10.1868C7.48602 58.9975 4.89674 58.0662 2.987 56.4105C1.07726 54.7549 0.00303812 52.5101 0 50.1686V24.124C0.00207875 22.521 0.737513 20.9841 2.04496 19.8506C3.35241 18.7171 5.12508 18.0795 6.97411 18.0776H44.0259C45.8749 18.0795 47.6476 18.7171 48.955 19.8506C50.2625 20.9841 50.9979 22.521 51 24.124V50.1686C50.997 52.5101 49.9228 54.7549 48.013 56.4105C46.1033 58.0662 43.514 58.9975 40.8132 59.0001V59.0001Z" fill="white"/>
<path d="M31.2984 35.3074C31.2992 34.3877 31.0172 33.4844 30.4815 32.6905C29.9457 31.8966 29.1755 31.2409 28.2503 30.7909C27.325 30.3409 26.2781 30.1129 25.2174 30.1303C24.1567 30.1477 23.1205 30.4099 22.2155 30.89C21.3106 31.37 20.5696 32.0505 20.0689 32.8614C19.5681 33.6722 19.3257 34.5841 19.3667 35.5032C19.4076 36.4223 19.7304 37.3153 20.3018 38.0902C20.8732 38.8652 21.6726 39.4941 22.6175 39.9122V48.0075H28.0431V39.9122C29.0226 39.4794 29.845 38.8203 30.4195 38.0077C30.994 37.195 31.2981 36.2605 31.2984 35.3074V35.3074Z" fill="#2F2E41"/>
<path d="M31.2984 35.3074C31.2992 34.3877 31.0172 33.4844 30.4815 32.6905C29.9457 31.8966 29.1755 31.2409 28.2503 30.7909C27.325 30.3409 26.2781 30.1129 25.2174 30.1303C24.1567 30.1477 23.1205 30.4099 22.2155 30.89C21.3106 31.37 20.5696 32.0505 20.0689 32.8614C19.5681 33.6722 19.3257 34.5841 19.3667 35.5032C19.4076 36.4223 19.7304 37.3153 20.3018 38.0902C20.8732 38.8652 21.6726 39.4941 22.6175 39.9122V48.0075H28.0431V39.9122C29.0226 39.4794 29.845 38.8203 30.4195 38.0077C30.994 37.195 31.2981 36.2605 31.2984 35.3074V35.3074Z" fill="#2F2E41"/>
</svg>
